<mxfile host="www.draw.io" modified="2019-12-04T07:19:33.269Z" agent="Mozilla/5.0 (Macintosh; Intel Mac OS X 10_14_6) AppleWebKit/537.36 (KHTML, like Gecko) Chrome/78.0.3904.108 Safari/537.36" etag="7I5aQJRj3fYpu-0L9OgR" version="12.3.6" type="github" pages="1">
  <diagram id="IaukWEQ2sbV7puGJuvU5" name="第 1 页">
    <mxGraphModel dx="946" dy="535" grid="1" gridSize="10" guides="1" tooltips="1" connect="1" arrows="1" fold="1" page="1" pageScale="1" pageWidth="827" pageHeight="1169" math="0" shadow="0">
      <root>
        <mxCell id="0"/>
        <mxCell id="1" parent="0"/>
        <mxCell id="sxSDfhsG-083m2mvdzm9-2" value="" style="strokeWidth=2;html=1;shape=mxgraph.flowchart.terminator;whiteSpace=wrap;" vertex="1" parent="1">
          <mxGeometry x="180" y="390" width="100" height="60" as="geometry"/>
        </mxCell>
      </root>
    </mxGraphModel>
  </diagram>
</mxfile>
